PathFileType  4	(X/Y/Z) C:\Users\antoi\Documents\MyRepositories\mobilecap\ResultsAnalysis
DataRate	CameraRate	NumFrames	NumMarkers	Units	OrigDataRate	OrigDataStartFrame	OrigNumFrames
100.0	100.0	4	51	mm	100.0	1	249
Frame#	Time	r_knee			r_shank_antsup			r_ankle			r_calc			r_5meta			r_toe			L_knee			L_shank_antsup			L_ankle			L_calc			L_5meta			L_toe			r_sh2			r_sh3			r_sh4			L_sh2			L_sh3			r_thigh1			r_thigh2			r_thigh3			r_thigh4			r_thigh5			L_thigh1			L_thigh2			L_thigh3			L_thigh4			r.ASIS			r.PSIS			L.ASIS			L.PSIS			C7			R_Shoulder			L_Shoulder			R_Sternum			L_Sternum			R_humerus			R_elbow_med			R_elbow_lat			R_forearm			R_wrist_radius			R_wrist_ulna			L_humerus			L_elbow_med			L_elbow_lat			L_forearm			L_wrist_radius			L_wrist_ulna			R_HJC			L_HJC			R_HJC_reg			L_HJC_reg			
		X1	Y1	Z1	X2	Y2	Z2	X3	Y3	Z3	X4	Y4	Z4	X5	Y5	Z5	X6	Y6	Z6	X7	Y7	Z7	X8	Y8	Z8	X9	Y9	Z9	X10	Y10	Z10	X11	Y11	Z11	X12	Y12	Z12	X13	Y13	Z13	X14	Y14	Z14	X15	Y15	Z15	X16	Y16	Z16	X17	Y17	Z17	X18	Y18	Z18	X19	Y19	Z19	X20	Y20	Z20	X21	Y21	Z21	X22	Y22	Z22	X23	Y23	Z23	X24	Y24	Z24	X25	Y25	Z25	X26	Y26	Z26	X27	Y27	Z27	X28	Y28	Z28	X29	Y29	Z29	X30	Y30	Z30	X31	Y31	Z31	X32	Y32	Z32	X33	Y33	Z33	X34	Y34	Z34	X35	Y35	Z35	X36	Y36	Z36	X37	Y37	Z37	X38	Y38	Z38	X39	Y39	Z39	X40	Y40	Z40	X41	Y41	Z41	X42	Y42	Z42	X43	Y43	Z43	X44	Y44	Z44	X45	Y45	Z45	X46	Y46	Z46	X47	Y47	Z47	X48	Y48	Z48	X49	Y49	Z49	X50	Y50	Z50	X51	Y51	Z51	

1	0.00000000	-1138.33895	774.03534	-438.95531	-1134.30334	701.10650	-417.17956	-1183.74831	398.86135	-459.07082	-1253.06654	363.04658	-492.40048	-1079.77713	353.05614	-433.33002	-1039.65555	372.93070	-490.82755	-1159.22948	769.65782	-713.78493	-1139.04206	710.08234	-719.29129	-1177.26222	401.53170	-708.41653	-1246.51613	364.96661	-663.60533	-1082.51272	351.37882	-733.95413	-1035.33108	373.49266	-677.03003	-1144.56393	590.10422	-415.86827	-1208.81409	706.00014	-425.38837	-1226.75220	591.75507	-427.36951	-1226.02988	718.79428	-742.09370	-1221.41037	597.03165	-745.83127	-1040.31094	1079.55107	-441.16203	-1042.39406	966.78216	-437.51435	-1090.89659	945.01205	-396.73399	-1135.66041	1082.33894	-379.14230	-1143.63693	965.94642	-392.53362	-1052.59748	1042.65323	-735.52871	-1069.17025	905.68967	-726.35133	-1167.38549	1053.65662	-764.14884	-1175.43061	913.27235	-746.00740	-1049.43024	1230.90414	-448.78437	-1232.15732	1242.98230	-528.19574	-1042.28198	1218.87438	-708.85510	-1232.29455	1236.23649	-635.24741	-1204.18445	1707.51202	-578.11056	-1143.67103	1650.89948	-425.19512	-1142.02553	1655.88466	-746.57387	-1089.84223	1623.94226	-564.23453	-1089.15549	1623.57008	-605.46018	-1124.43716	1407.70772	-353.65179	-1168.40052	1305.24333	-406.61832	-1148.27848	1322.58685	-338.60761	-1082.04961	1218.46124	-328.97374	-1043.80672	1104.48444	-333.67527	-1082.72760	1093.38327	-316.23215	-1102.59547	1523.39601	-791.99168	-1144.90590	1309.66429	-740.61466	-1143.71565	1317.54057	-803.74447	-1081.02398	1228.87921	-828.15148	-1039.87704	1109.21536	-820.91600	-1074.22296	1094.66729	-828.08882	-1114.09314	1153.48605	-476.34782	-1106.55677	1147.32688	-676.40356	-1108.54858	1147.36641	-480.42179	-1108.76849	1136.55598	-651.97635	
2	0.01000000	-1136.82068	773.95812	-439.29824	-1132.90967	700.91369	-417.30441	-1183.77674	398.92634	-459.14856	-1253.10251	362.96900	-492.50277	-1080.00434	352.88612	-433.53320	-1039.70833	372.94892	-490.82269	-1158.77694	769.82448	-713.94192	-1138.51550	709.87633	-719.19483	-1177.29814	401.49054	-708.46099	-1246.55668	364.93629	-663.69553	-1082.61175	351.36241	-733.84749	-1035.32592	373.57745	-677.02562	-1143.59638	589.30057	-416.34154	-1207.54036	705.94866	-425.92298	-1225.85193	591.81084	-427.55844	-1225.56843	718.78558	-742.31062	-1222.38721	596.42308	-744.50293	-1040.24182	1079.53673	-441.16913	-1041.80477	966.73295	-438.02706	-1090.11623	944.96667	-396.90392	-1135.49140	1081.82105	-379.16352	-1142.90462	965.37400	-392.42908	-1053.21258	1042.62674	-735.72082	-1068.84733	905.77491	-726.33504	-1167.00078	1053.77292	-764.39929	-1175.14242	913.23231	-746.02257	-1049.47907	1230.77297	-448.65400	-1231.92786	1243.16593	-528.17929	-1042.16729	1218.91316	-708.57633	-1232.25155	1236.36923	-635.17308	-1203.85996	1707.49210	-578.22811	-1143.67290	1650.62952	-425.36695	-1141.75173	1655.99438	-746.66879	-1089.50981	1624.05818	-564.33321	-1088.90794	1623.72132	-605.48582	-1124.01051	1407.87996	-353.52361	-1167.99401	1305.42989	-406.65767	-1147.77139	1322.65908	-338.50395	-1081.59741	1218.55126	-328.78631	-1043.16328	1104.63272	-333.61130	-1082.08459	1093.54543	-315.93022	-1102.25414	1523.58838	-792.07511	-1144.47953	1309.96070	-741.33254	-1143.25445	1317.61769	-804.04622	-1080.56418	1229.16010	-828.55862	-1039.34336	1109.42627	-821.44167	-1073.76737	1094.84577	-828.37077	-1114.16220	1153.46499	-476.24453	-1106.51131	1147.39036	-676.29849	-1108.51481	1147.55576	-480.12882	-1109.02916	1136.66291	-651.57884	
3	0.02000000	-1135.32935	773.71519	-439.69085	-1131.65777	700.66258	-417.72021	-1183.79168	398.97228	-459.18247	-1253.12861	362.91039	-492.55842	-1080.06973	352.88939	-433.61670	-1039.75119	373.00551	-490.84905	-1158.36567	769.93084	-714.06276	-1138.01895	709.76615	-719.25936	-1177.32712	401.44644	-708.50406	-1246.60948	364.85531	-663.71146	-1082.71210	351.36565	-733.75802	-1035.40165	373.67791	-677.04815	-1142.78940	588.96049	-416.48248	-1206.41209	705.87389	-426.41162	-1224.96588	591.87265	-427.82531	-1225.00065	718.81096	-742.49780	-1222.35800	596.20922	-744.37191	-1040.18645	1079.58248	-441.24595	-1041.33732	966.80645	-438.39890	-1089.44056	944.88025	-396.98234	-1135.21245	1081.55489	-378.96805	-1142.24212	965.00925	-392.40010	-1053.21023	1042.65027	-735.92244	-1068.53889	905.79975	-726.28989	-1166.69104	1053.76511	-764.45072	-1174.82013	913.22803	-746.07531	-1049.50732	1230.62400	-448.52744	-1231.90937	1243.37712	-528.03166	-1042.04697	1218.90493	-708.31213	-1232.19317	1236.51695	-635.07163	-1203.66343	1707.56696	-578.30064	-1143.68403	1650.40784	-425.45095	-1141.42619	1656.12401	-746.83696	-1089.13207	1624.17555	-564.37890	-1088.55406	1623.91630	-605.50985	-1123.60205	1408.08597	-353.46320	-1167.33329	1305.50375	-406.54831	-1147.27329	1322.74842	-338.38935	-1081.03324	1218.67851	-328.56763	-1042.46190	1104.78876	-333.42889	-1081.38874	1093.73476	-315.84942	-1101.83430	1523.74070	-792.15171	-1143.92456	1310.33871	-741.74707	-1142.80659	1317.67248	-804.20789	-1080.04693	1229.45794	-829.00228	-1038.88597	1109.60338	-821.72576	-1073.30107	1094.99205	-828.63815	-1114.28115	1153.44004	-476.10344	-1106.53405	1147.43563	-676.15582	-1108.68644	1147.70709	-479.97124	-1109.13977	1136.72491	-651.32234	
4	0.03000000	-1133.78115	773.42872	-440.15607	-1130.53690	700.38146	-418.20411	-1183.79572	398.97435	-459.17905	-1253.15305	362.88042	-492.58916	-1080.04301	352.98357	-433.61350	-1039.77440	373.08344	-490.88001	-1157.92725	770.01699	-714.20220	-1137.54308	709.74403	-719.48600	-1177.35701	401.40348	-708.52097	-1246.66223	364.74074	-663.67079	-1082.78182	351.39004	-733.72725	-1035.53450	373.77173	-677.06560	-1142.08085	588.92842	-416.51116	-1205.37495	705.85289	-426.76874	-1224.20159	591.94083	-428.10613	-1224.34516	718.84595	-742.64451	-1221.86527	596.24751	-744.82563	-1040.05973	1079.67028	-441.42123	-1040.72656	966.91219	-438.98682	-1088.83978	944.74743	-397.01850	-1134.87949	1081.46864	-378.60221	-1141.69191	964.75968	-392.48900	-1052.66302	1042.71606	-736.13065	-1068.26670	905.81892	-726.25783	-1166.46207	1053.67381	-764.32194	-1174.48331	913.23139	-746.11354	-1049.47554	1230.51076	-448.43123	-1232.31394	1243.80147	-527.29928	-1041.91892	1218.87257	-708.10663	-1232.09194	1236.72922	-634.99690	-1203.42451	1707.62452	-578.26871	-1143.40260	1650.60759	-425.31817	-1141.06445	1656.25701	-746.95738	-1088.70952	1624.31494	-564.38724	-1088.06896	1624.14160	-605.51576	-1123.16552	1408.31400	-353.40427	-1166.61364	1305.50303	-406.42500	-1146.74035	1322.88642	-338.29042	-1080.34046	1218.90081	-328.36738	-1041.69071	1104.94807	-333.04843	-1080.62070	1093.92972	-315.90627	-1101.34323	1523.86592	-792.19558	-1143.35391	1310.58243	-741.83549	-1142.32443	1317.76708	-804.31896	-1079.47133	1229.69881	-829.41973	-1038.44756	1109.73364	-821.82293	-1072.79714	1095.10509	-828.93065	-1114.46086	1153.49794	-475.84148	-1106.73474	1147.51491	-675.89527	-1109.33303	1147.98480	-480.04967	-1108.99305	1136.74354	-651.30674	
